<svg xmlns="http://www.w3.org/2000/svg" version="1.1" xmlns:xlink="http://www.w3.org/1999/xlink" width="1500" height="1500" viewBox="0 0 1500 1500"><rect width="1500" height="1500" x="0" y="0" id="background" stroke="transparent" fill="#ffffff"></rect><svg xml:space="preserve" width="1000" height="1000" data-version="2" data-id="lg_q5QO4KJbDXRRaCmFmS" viewBox="0 0 562 345" x="250" y="250"><rect width="100%" height="100%" fill="transparent"></rect><rect width="508.28" height="312.98" x="-254.14" y="-156.49" fill="#fff" stroke="#001f3f" stroke-width="25" paint-order="stroke" rx="25" ry="25" transform="translate(272.11 172.3)"></rect><rect width="246.28" height="312.98" x="-123.14" y="-156.49" fill="#001f3f" stroke="#001f3f" stroke-width="25" paint-order="stroke" rx="25" ry="25" transform="translate(420.9 172.7)"></rect><rect width="189.81" height="312.98" x="-94.9" y="-156.49" fill="#001f3f" stroke="#001f3f" stroke-width="25" paint-order="stroke" rx="0" ry="0" transform="translate(381.78 172.7)"></rect><path fill="#001f3f" d="m77.08 211.263 20.6-59.64-8.06-.77v-10.37h29.31l26.11 73.86h.13l7.3.38v10.88h-33.03v-10.37l4.87-.38q2.17-.26 2.94-1.03.77-.76.13-2.81l-2.69-7.94H94.74l-3.84 11.27 7.68.38v10.88H69.01v-10.37l4.23-.38q2.68-.26 3.84-3.59m33.02-56.44h-.38l-11.91 36.48h23.81z"></path><rect width="83.46" height="85.12" x="-41.73" y="-42.56" fill="none" rx="0" ry="0" transform="translate(111.24 183.54)"></rect><path fill="#001f3f" d="M162.96 221.763v-73.47q0-2.95-3.2-3.07l-4.48-.26v-10.62h22.53v30.33q5.76-5.37 15.49-5.37 12.03 0 19.07 8.12 7.04 8.13 7.04 22.85 0 36.99-30.97 36.99-6.66 0-14.02-1.6-7.36-1.6-11.46-3.9m14.85-41.47v33.15q4.87 2.56 11.27 2.56 14.59 0 14.59-23.68 0-21.63-14.34-21.63-4.61 0-8.06 2.69-3.46 2.68-3.46 6.91"></path><rect width="64.13" height="92.92" x="-32.06" y="-46.46" fill="none" rx="0" ry="0" transform="translate(187.84 181.3)"></rect><path fill="#fff" d="M402.26 239.593h-10.88q-12.41 0-17.92-6.21-5.5-6.21-5.5-17.6 0-2.43.19-4.74.19-2.3.45-4.86.25-2.31.38-4.35.13-2.05.13-3.84 0-6.66-2.37-9.28-2.37-2.63-8.64-2.63h-6.91v-10.75h6.91q6.27 0 8.64-2.62 2.37-2.63 2.37-9.28 0-1.8-.13-3.84-.13-2.05-.38-4.36-.26-2.56-.45-4.86-.19-2.3-.19-4.74 0-11.39 5.5-17.6 5.51-6.2 17.92-6.2h10.88v10.75h-8.45q-7.55 0-10.62 3.26-3.07 3.27-3.07 10.43 0 1.67.19 3.84.19 2.18.32 4.23.26 2.56.45 4.86.19 2.31.19 4.35 0 7.43-2.94 11.33-2.95 3.91-8.71 5.57v.51q5.76 1.67 8.71 5.51 2.94 3.84 2.94 11.39 0 2.05-.19 4.35t-.45 4.86q-.13 2.05-.32 4.16-.19 2.12-.19 3.91 0 7.17 3.07 10.43t10.62 3.26h8.45z"></path><rect width="51.07" height="117.76" x="-25.54" y="-58.88" fill="none" rx="0" ry="0" transform="translate(377.23 181.21)"></rect><path fill="#fff" d="M436.95 239.593h-10.88v-10.76h8.45q7.55 0 10.62-3.26 3.07-3.26 3.07-10.43 0-1.79-.12-3.91-.13-2.11-.39-4.16-.25-2.56-.45-4.86-.19-2.3-.19-4.35 0-7.55 2.95-11.39 2.94-3.84 8.7-5.51v-.51q-5.76-1.66-8.7-5.57-2.95-3.9-2.95-11.33 0-2.04.19-4.35.2-2.3.45-4.86.26-2.05.39-4.23.12-2.17.12-3.84 0-7.16-3.07-10.43-3.07-3.26-10.62-3.26h-8.45v-10.75h10.88q12.54 0 17.98 6.2 5.44 6.21 5.44 17.6 0 2.44-.19 4.74-.19 2.3-.45 4.86-.25 2.31-.38 4.36-.13 2.04-.13 3.84 0 6.65 2.37 9.28 2.37 2.62 8.64 2.62h6.91v10.75h-6.91q-6.27 0-8.64 2.63-2.37 2.62-2.37 9.28 0 1.79.13 3.84.13 2.04.38 4.35.26 2.56.45 4.86.19 2.31.19 4.74 0 11.39-5.44 17.6-5.44 6.21-17.98 6.21"></path><rect width="51.07" height="117.76" x="-25.54" y="-58.88" fill="none" rx="0" ry="0" transform="translate(452.1 181.21)"></rect></svg></svg>